<?xml version="1.0" encoding="UTF-8"?>
<svg xmlns="http://www.w3.org/2000/svg" xmlns:xlink="http://www.w3.org/1999/xlink" width="150pt" height="149.999998pt" viewBox="0 0 150 149.999998" version="1.2">
<g id="surface1">
<path style=" stroke:none;fill-rule:nonzero;fill:rgb(92.549133%,30.589294%,31.369019%);fill-opacity:1;" d="M 75 21 C 104.777344 21 129 45.222656 129 75 C 129 104.777344 104.777344 129 75 129 C 45.222656 129 21 104.777344 21 75 C 21 45.222656 45.222656 21 75 21 M 75 15 C 41.863281 15 15 41.863281 15 75 C 15 108.136719 41.863281 135 75 135 C 108.136719 135 135 108.136719 135 75 C 135 41.863281 108.136719 15 75 15 Z M 75 15 "/>
<path style=" stroke:none;fill-rule:nonzero;fill:rgb(92.549133%,30.589294%,31.369019%);fill-opacity:1;" d="M 74.976562 106.136719 C 66.65625 106.136719 58.820312 102.898438 52.941406 97.007812 C 47.050781 91.128906 43.8125 83.292969 43.8125 74.976562 C 43.8125 66.65625 47.050781 58.820312 52.941406 52.941406 C 58.820312 47.050781 66.65625 43.8125 74.976562 43.8125 C 83.292969 43.8125 91.128906 47.050781 97.007812 52.941406 C 102.898438 58.835938 106.136719 66.65625 106.136719 74.976562 C 106.136719 83.292969 102.898438 91.128906 97.007812 97.007812 C 91.128906 102.898438 83.292969 106.136719 74.976562 106.136719 Z M 74.976562 45.683594 C 67.152344 45.683594 59.792969 48.734375 54.261719 54.261719 C 48.734375 59.792969 45.683594 67.152344 45.683594 74.976562 C 45.683594 82.796875 48.734375 90.15625 54.261719 95.6875 C 59.792969 101.214844 67.152344 104.269531 74.976562 104.269531 C 82.796875 104.269531 90.15625 101.214844 95.6875 95.6875 C 101.214844 90.15625 104.269531 82.796875 104.269531 74.976562 C 104.269531 67.152344 101.214844 59.792969 95.6875 54.261719 C 90.15625 48.734375 82.796875 45.683594 74.976562 45.683594 Z M 74.976562 45.683594 "/>
</g>
</svg>
