<?xml version="1.0" encoding="UTF-8"?>
<svg xmlns="http://www.w3.org/2000/svg" xmlns:xlink="http://www.w3.org/1999/xlink" width="150pt" height="149.999998pt" viewBox="0 0 150 149.999998" version="1.2">
<defs>
<clipPath id="clip1">
  <path d="M 49.324219 49.324219 L 100.324219 49.324219 L 100.324219 100.324219 L 49.324219 100.324219 Z M 49.324219 49.324219 "/>
</clipPath>
</defs>
<g id="surface1">
<g clip-path="url(#clip1)" clip-rule="nonzero">
<path style=" stroke:none;fill-rule:nonzero;fill:rgb(6.669617%,71.759033%,98.429871%);fill-opacity:1;" d="M 50.398438 100.277344 C 50.148438 100.277344 49.898438 100.179688 49.710938 99.988281 C 49.328125 99.609375 49.328125 98.988281 49.710938 98.609375 L 98.558594 49.757812 C 98.941406 49.375 99.558594 49.375 99.941406 49.757812 C 100.324219 50.140625 100.324219 50.757812 99.941406 51.140625 L 51.089844 99.988281 C 50.898438 100.179688 50.648438 100.277344 50.398438 100.277344 "/>
<path style=" stroke:none;fill-rule:nonzero;fill:rgb(6.669617%,71.759033%,98.429871%);fill-opacity:1;" d="M 99.25 100.277344 C 99 100.277344 98.75 100.179688 98.558594 99.988281 L 49.710938 51.140625 C 49.328125 50.757812 49.328125 50.140625 49.710938 49.757812 C 50.089844 49.375 50.707031 49.375 51.089844 49.757812 L 99.941406 98.609375 C 100.324219 98.988281 100.324219 99.609375 99.941406 99.988281 C 99.75 100.179688 99.5 100.277344 99.25 100.277344 "/>
</g>
<path style=" stroke:none;fill-rule:nonzero;fill:rgb(6.669617%,71.759033%,98.429871%);fill-opacity:1;" d="M 75 21 C 104.777344 21 129 45.222656 129 75 C 129 104.777344 104.777344 129 75 129 C 45.222656 129 21 104.777344 21 75 C 21 45.222656 45.222656 21 75 21 M 75 15 C 41.863281 15 15 41.863281 15 75 C 15 108.136719 41.863281 135 75 135 C 108.136719 135 135 108.136719 135 75 C 135 41.863281 108.136719 15 75 15 Z M 75 15 "/>
</g>
</svg>
