<?xml version="1.0" encoding="UTF-8"?>
<svg xmlns="http://www.w3.org/2000/svg" xmlns:xlink="http://www.w3.org/1999/xlink" width="150pt" height="149.999998pt" viewBox="0 0 150 149.999998" version="1.2">
<g id="surface1">
<path style=" stroke:none;fill-rule:nonzero;fill:rgb(90.589905%,47.839355%,90.19928%);fill-opacity:1;" d="M 75 21 C 104.777344 21 129 45.222656 129 75 C 129 104.777344 104.777344 129 75 129 C 45.222656 129 21 104.777344 21 75 C 21 45.222656 45.222656 21 75 21 M 75 15 C 41.863281 15 15 41.863281 15 75 C 15 108.136719 41.863281 135 75 135 C 108.136719 135 135 108.136719 135 75 C 135 41.863281 108.136719 15 75 15 Z M 75 15 "/>
<path style=" stroke:none;fill-rule:nonzero;fill:rgb(90.589905%,47.839355%,90.19928%);fill-opacity:1;" d="M 49.324219 49.324219 L 49.324219 100.777344 L 100.777344 100.777344 L 100.777344 49.324219 Z M 99.136719 99.136719 L 50.929688 99.136719 L 50.929688 50.929688 L 99.136719 50.929688 Z M 99.136719 99.136719 "/>
</g>
</svg>
